<?xml version="1.0" encoding="UTF-8" standalone="no"?>
<!DOCTYPE svg PUBLIC "-//W3C//DTD SVG 1.1//EN" "http://www.w3.org/Graphics/SVG/1.1/DTD/svg11.dtd">
<svg width="100%" height="100%" viewBox="0 0 600 600" version="1.1" xmlns="http://www.w3.org/2000/svg" xmlns:xlink="http://www.w3.org/1999/xlink" xml:space="preserve" xmlns:serif="http://www.serif.com/" style="fill-rule:evenodd;clip-rule:evenodd;">
    <g id="Ebene-1" serif:id="Ebene 1" transform="matrix(3.779528,0,0,3.779528,0,0)">
        <path id="path54" d="M79.375,79.515L158.469,79.515" style="fill:none;fill-rule:nonzero;stroke:black;stroke-width:0.17px;"/>
        <path id="path54-0" d="M-0,79.515L79.656,79.515" style="fill:none;fill-rule:nonzero;stroke:rgb(127,127,127);stroke-width:0.17px;"/>
        <path id="path180" d="M11.866,40.539L79.375,79.515" style="fill:none;fill-rule:nonzero;stroke:black;stroke-width:0.24px;"/>
        <path id="path180-0" d="M79.376,79.517L147.971,119.12" style="fill:none;fill-rule:nonzero;stroke:rgb(128,128,128);stroke-width:0.24px;"/>
        <path id="path182" d="M79.375,79.515L118.351,147.024" style="fill:none;fill-rule:nonzero;stroke:black;stroke-width:0.24px;"/>
        <path id="path184" d="M79.375,79.515L40.399,147.024" style="fill:none;fill-rule:nonzero;stroke:black;stroke-width:0.24px;"/>
        <path id="path665" d="M146.884,40.539L79.375,79.515" style="fill:none;fill-rule:nonzero;stroke:black;stroke-width:0.24px;"/>
        <path id="path667" d="M79.375,79.515L79.375,158.511" style="fill:none;fill-rule:nonzero;stroke:black;stroke-width:0.24px;"/>
        <path id="path667-7" d="M79.375,0.005L79.375,79.515" style="fill:none;fill-rule:nonzero;stroke:rgb(128,128,128);stroke-width:0.24px;"/>
        <g id="text5582">
            <g transform="matrix(1,0,0,1,151.73854,77.787498)">
                <text x="0px" y="0px" style="font-family:'BarlowSemiCondensed-SemiBoldItalic', 'Barlow Semi Condensed';font-weight:600;font-style:italic;font-stretch:semi-condensed;font-size:6.35px;">I</text>
            </g>
        </g>
        <g id="text5582-0">
            <g transform="matrix(1,0,0,1,119.31365,138.03963)">
                <text x="0px" y="0px" style="font-family:'BarlowSemiCondensed-SemiBoldItalic', 'Barlow Semi Condensed';font-weight:600;font-style:italic;font-stretch:semi-condensed;font-size:6.35px;">II</text>
            </g>
        </g>
        <g id="text5582-0-5">
            <g transform="matrix(1,0,0,1,34.104385,138.03961)">
                <text x="0px" y="0px" style="font-family:'BarlowSemiCondensed-SemiBoldItalic', 'Barlow Semi Condensed';font-weight:600;font-style:italic;font-stretch:semi-condensed;font-size:6.35px;">III</text>
            </g>
        </g>
        <g id="text5582-0-5-9">
            <g transform="matrix(1,0,0,1,18.257793,40.863647)">
                <text x="0px" y="0px" style="font-family:'BarlowSemiCondensed-SemiBoldItalic', 'Barlow Semi Condensed';font-weight:600;font-style:italic;font-stretch:semi-condensed;font-size:6.35px;">aVR</text>
            </g>
        </g>
        <g id="text5582-0-5-9-1">
            <g transform="matrix(1,0,0,1,127.78599,40.815594)">
                <text x="0px" y="0px" style="font-family:'BarlowSemiCondensed-SemiBoldItalic', 'Barlow Semi Condensed';font-weight:600;font-style:italic;font-stretch:semi-condensed;font-size:6.35px;">aVL</text>
            </g>
        </g>
        <g id="text5582-0-5-8">
            <g transform="matrix(1,0,0,1,85.684692,151.40109)">
                <text x="0px" y="0px" style="font-family:'BarlowSemiCondensed-SemiBoldItalic', 'Barlow Semi Condensed';font-weight:600;font-style:italic;font-stretch:semi-condensed;font-size:6.35px;">aVF</text>
            </g>
        </g>
        <path id="rect4201-7" d="M156.281,78.102L157.329,79.511L156.281,80.921L158.752,79.511L156.281,78.102Z" style="fill-rule:nonzero;"/>
        <path id="rect4201-7-1" d="M119.048,145.412L118.351,147.024L116.607,146.821L119.062,148.256L119.048,145.412Z" style="fill-rule:nonzero;"/>
        <path id="rect4201-7-1-0" d="M42.143,146.821L40.399,147.024L39.702,145.412L39.688,148.256L42.143,146.821Z" style="fill-rule:nonzero;"/>
        <path id="rect4201-7-1-0-3" d="M12.069,42.283L11.866,40.539L13.478,39.842L10.634,39.827L12.069,42.283Z" style="fill-rule:nonzero;"/>
        <path id="rect4201-7-1-0-3-7" d="M145.272,39.842L146.884,40.539L146.681,42.283L148.116,39.827L145.272,39.842Z" style="fill-rule:nonzero;"/>
        <path id="rect4201-7-1-4" d="M80.783,156.282L79.374,157.33L77.964,156.282L79.374,158.752L80.783,156.282Z" style="fill-rule:nonzero;"/>
    </g>
</svg>
